HIERARCHY
ROOT Pelvis
{
	OFFSET -0.001795 -0.223333 0.028219
	CHANNELS 6 Xposition Yposition Zposition Zrotation Yrotation Xrotation 
	JOINT Left_hip
	{
		OFFSET 0.069520 -0.091406 -0.006815
		CHANNELS 3 Zrotation Yrotation Xrotation
		JOINT Left_knee
		{
			OFFSET 0.034277 -0.375199 -0.004496
			CHANNELS 3 Zrotation Yrotation Xrotation
			JOINT Left_ankle
			{
				OFFSET -0.013596 -0.397960 -0.043693
				CHANNELS 3 Zrotation Yrotation Xrotation
				JOINT Left_foot
				{
					OFFSET 0.026358 -0.055791 0.119288
					CHANNELS 3 Zrotation Yrotation Xrotation
					End Site
					{
						OFFSET 0.000000 0.000000 0.000000
					}
				}
			}
		}
	}
	JOINT Right_hip
	{
		OFFSET -0.067670 -0.090522 -0.004320
		CHANNELS 3 Zrotation Yrotation Xrotation
		JOINT Right_knee
		{
			OFFSET -0.038290 -0.382569 -0.008850
			CHANNELS 3 Zrotation Yrotation Xrotation
			JOINT Right_ankle
			{
				OFFSET 0.015774 -0.398415 -0.042312
				CHANNELS 3 Zrotation Yrotation Xrotation
				JOINT Right_foot
				{
					OFFSET -0.025372 -0.048144 0.123348
					CHANNELS 3 Zrotation Yrotation Xrotation
					End Site
					{
						OFFSET 0.000000 0.000000 0.000000
					}
				}
			}
		}
	}
	JOINT Spine1
	{
		OFFSET -0.002533 0.108963 -0.026696
		CHANNELS 3 Zrotation Yrotation Xrotation
		JOINT Spine2
		{
			OFFSET 0.005487 0.135180 0.001092
			CHANNELS 3 Zrotation Yrotation Xrotation
			JOINT Spine3
			{
				OFFSET 0.001457 0.052922 0.025425
				CHANNELS 3 Zrotation Yrotation Xrotation
				JOINT Neck
				{
					OFFSET -0.002778 0.213870 -0.042857
					CHANNELS 3 Zrotation Yrotation Xrotation
					JOINT Head
					{
						OFFSET 0.005152 0.064970 0.051349
						CHANNELS 3 Zrotation Yrotation Xrotation
						End Site
						{
							OFFSET 0.000000 0.000000 0.000000
						}
					}
				}
				JOINT Left_collar
				{
					OFFSET 0.078845 0.121749 -0.034090
					CHANNELS 3 Zrotation Yrotation Xrotation
					JOINT Left_shoulder
					{
						OFFSET 0.090977 0.030469 -0.008868
						CHANNELS 3 Zrotation Yrotation Xrotation
						JOINT Left_elbow
						{
							OFFSET 0.259612 -0.012772 -0.027456
							CHANNELS 3 Zrotation Yrotation Xrotation
							JOINT Left_wrist
							{
								OFFSET 0.249234 0.008986 -0.001171
								CHANNELS 3 Zrotation Yrotation Xrotation
								JOINT Left_palm
								{
									OFFSET 0.084042 -0.008162 -0.014945
									CHANNELS 3 Zrotation Yrotation Xrotation
									End Site
									{
										OFFSET 0.000000 0.000000 0.000000
									}
								}
							}
						}
					}
				}
				JOINT Right_collar
				{
					OFFSET -0.081759 0.118833 -0.038615
					CHANNELS 3 Zrotation Yrotation Xrotation
					JOINT Right_shoulder
					{
						OFFSET -0.096012 0.032551 -0.009143
						CHANNELS 3 Zrotation Yrotation Xrotation
						JOINT Right_elbow
						{
							OFFSET -0.253742 -0.013329 -0.021401
							CHANNELS 3 Zrotation Yrotation Xrotation
							JOINT Right_wrist
							{
								OFFSET -0.255298 0.007772 -0.005559
								CHANNELS 3 Zrotation Yrotation Xrotation
								JOINT Right_palm
								{
									OFFSET -0.084622 -0.006117 -0.010315
									CHANNELS 3 Zrotation Yrotation Xrotation
									End Site
									{
										OFFSET 0.000000 0.000000 0.000000
									}
								}
							}
						}
					}
				}
			}
		}
	}
}
MOTION
Frames: 14
Frame Time: 0.033333
0.309057 0.374577 0.153710 -14.539124 20.533265 24.177469 24.784225 30.116659 -78.825325 7.419353 25.996674 119.782885 8.846435 9.461690 -34.117175 -10.057353 13.156867 -18.147905 -27.087483 -10.200273 -24.382238 -2.303443 17.410747 43.368735 22.810035 -4.127762 -3.202053 -40.186426 -8.873005 -12.907072 -5.707775 0.416521 42.437849 13.409634 -20.912305 -13.352558 6.911648 -9.636009 -4.291579 -13.902477 2.963760 1.260100 18.865736 -7.336300 -8.249945 12.313798 -61.052297 -15.622561 24.110428 -68.829081 -33.432469 -46.507051 -61.100010 88.215372 8.234005 -16.278649 5.968923 0.000000 0.000000 0.000000 -1.533409 26.569801 -16.235582 51.353580 4.453488 -0.054670 -148.851061 70.698310 -123.540541 -11.381514 5.372206 -27.980779 0.000000 0.000000 0.000000 
0.329948 0.382438 0.164809 -16.350963 23.718928 23.616688 24.239835 29.034638 -80.534611 7.174668 25.787716 119.449080 9.669452 10.401838 -34.711856 -10.088825 13.155474 -18.521093 -23.095348 -9.686751 -27.115146 -0.600374 15.622639 50.125837 21.474080 -3.528276 -5.539996 -39.109443 -8.194989 -12.455929 -6.887036 1.637135 43.066616 14.447748 -20.923424 -14.665974 6.784170 -9.709944 -4.487432 -13.288797 3.589893 0.247581 19.187001 -8.200427 -7.537833 14.910821 -61.152733 -17.409549 22.922011 -69.714432 -31.531135 -49.406718 -59.497930 90.563593 5.227108 -14.452905 6.898213 0.000000 0.000000 0.000000 -1.734617 26.795821 -16.885805 54.643686 4.286503 1.548817 -145.237755 70.853031 -119.450430 -9.429326 4.623557 -29.699429 0.000000 0.000000 0.000000 
0.352228 0.381815 0.175296 -18.034764 26.771285 22.835576 23.467050 27.677470 -81.847412 6.521147 25.746022 119.245772 9.943061 11.225520 -34.446681 -9.362241 12.904108 -18.221991 -19.306305 -8.543321 -31.502809 1.251563 14.239648 57.182750 19.618544 -3.213772 -8.011241 -37.931613 -7.527327 -12.457236 -8.096061 1.518145 43.255711 14.398601 -20.831006 -15.097471 6.726323 -10.361543 -4.445033 -12.586178 3.489941 0.187935 19.378261 -9.266019 -5.995963 16.677996 -61.397229 -18.540858 22.043687 -71.099366 -30.210178 -50.503780 -57.608215 91.112093 2.874160 -12.943686 7.821293 0.000000 0.000000 0.000000 -2.286790 27.247763 -17.502628 57.832941 4.823475 3.613590 -143.727178 71.763167 -117.737173 -7.313288 4.711202 -31.472614 0.000000 0.000000 0.000000 
0.376887 0.376083 0.188179 -20.328507 30.343170 22.215613 23.397214 25.779976 -82.350230 5.677143 25.088017 118.463394 10.430546 12.126918 -34.173409 -8.692474 12.704374 -18.708226 -15.074642 -5.611974 -37.483120 3.354055 12.210671 66.493630 17.241564 -3.976706 -9.638107 -36.755343 -6.399489 -12.717492 -9.724973 1.096938 42.720122 15.023694 -21.134642 -15.778317 6.921826 -11.583370 -4.477765 -11.913775 2.738423 -0.129810 18.917424 -11.047797 -5.214479 17.496470 -60.677680 -18.781979 12.338532 -73.663790 -20.824679 -49.490745 -54.528796 90.478393 1.448242 -10.407537 5.156185 0.000000 0.000000 0.000000 -2.658164 27.010843 -18.344788 62.293091 5.739954 7.776029 -141.616661 72.615245 -115.247422 -5.064321 3.175319 -33.066884 0.000000 0.000000 0.000000 
0.404671 0.375425 0.202325 -22.695352 33.678443 20.648874 23.263666 23.649272 -82.167857 5.562978 25.024349 117.729567 11.211158 13.616399 -32.713185 -7.702822 12.344630 -18.447501 -11.807569 -2.821871 -42.728762 4.702519 9.323306 76.873451 15.092813 -4.925828 -10.604558 -35.572369 -5.651553 -12.772434 -11.098856 0.618067 42.068788 14.795617 -21.120418 -16.311478 6.747196 -12.445177 -4.829239 -11.664892 2.914084 -0.806975 18.913219 -11.631931 -4.981068 19.830190 -60.674868 -20.239901 -3.978785 -74.801530 -5.574307 -47.556977 -52.151080 89.185201 -0.760637 -8.323420 4.643744 0.000000 0.000000 0.000000 -3.497104 27.169616 -18.984520 66.688910 5.935334 9.969448 -135.004235 74.149284 -108.952983 -1.686703 2.416180 -33.577203 0.000000 0.000000 0.000000 
0.435076 0.375496 0.216653 -26.429354 36.664300 17.120079 22.690295 21.033120 -80.482664 5.804258 25.995074 117.042413 11.788715 14.129938 -32.308617 -6.318191 13.067386 -19.021537 -8.329083 0.281959 -48.168870 4.809512 5.159180 86.851930 12.770550 -5.017479 -10.393216 -34.255688 -4.800715 -13.040629 -11.875186 -0.240885 41.084682 14.801022 -20.756824 -16.026003 6.537727 -12.466214 -5.435808 -11.263844 2.731260 -0.649700 18.332045 -12.086607 -4.222091 20.873433 -60.001648 -20.931843 -19.658415 -73.162993 9.215615 -44.846130 -50.060756 85.728886 -2.968387 -5.336500 4.088455 0.000000 0.000000 0.000000 -4.087847 27.819491 -19.729405 70.069782 6.815114 13.054264 -124.353728 76.473325 -100.280751 1.861014 2.251805 -33.554275 0.000000 0.000000 0.000000 
0.468525 0.370456 0.230482 -29.348030 38.893688 13.620533 22.341829 19.100700 -77.368947 5.154712 27.092227 114.801114 11.085653 15.390063 -31.812181 -3.642360 13.195547 -18.826509 -6.909683 3.637890 -53.353644 5.507310 0.930210 94.489536 10.978363 -5.053050 -11.467080 -32.494105 -3.315426 -13.090471 -12.319188 -0.913669 39.946568 14.315894 -20.382436 -15.988897 5.993575 -12.716588 -5.321686 -10.750057 2.635768 -1.285893 17.174362 -12.000619 -1.520485 21.050258 -59.462126 -21.157685 -34.055871 -71.267303 21.164838 -41.404392 -47.390701 81.152309 -5.476976 -2.110095 2.227142 0.000000 0.000000 0.000000 -4.187348 27.676416 -19.746951 73.931283 8.875640 16.457799 -104.550730 78.124549 -82.434466 5.411230 1.501514 -32.803388 0.000000 0.000000 0.000000 
0.504182 0.359985 0.241603 -31.933840 40.904971 10.191285 22.247650 18.065016 -73.676491 6.001464 26.887880 112.988302 11.090236 15.962720 -31.663201 -2.242078 13.089322 -18.846790 -4.485486 7.533929 -59.637303 5.076847 -3.088805 100.652860 8.905361 -4.635683 -14.211211 -31.024518 -1.227634 -13.457055 -13.644212 -1.173312 38.641856 14.353454 -19.951462 -16.968472 5.414949 -12.851426 -4.808465 -10.705158 2.432125 -2.434797 15.756951 -10.887537 0.570000 21.087301 -58.729848 -21.191390 -46.372975 -69.051685 30.750849 -37.621879 -44.375918 75.860811 -7.642113 1.026560 1.485018 0.000000 0.000000 0.000000 -3.726008 28.477333 -19.630631 78.514915 9.838223 18.590569 -80.419105 76.394075 -59.528969 9.603891 2.054147 -32.410447 0.000000 0.000000 0.000000 
0.540011 0.359107 0.252899 -34.666899 42.549911 5.250734 21.321219 16.188499 -70.035247 6.321746 26.807425 110.924330 10.924137 16.531994 -31.417489 -0.300878 12.359367 -18.355075 -3.025779 10.484116 -65.914189 4.713073 -7.471075 104.369999 7.617508 -4.305891 -16.874327 -29.908315 -0.066968 -13.655753 -14.213490 -2.464250 36.759684 13.571009 -19.987518 -15.984256 4.738422 -13.088723 -4.721488 -9.888352 1.172940 -3.106805 15.296310 -10.479412 1.989969 20.415686 -57.869580 -20.295410 -58.316882 -66.184051 39.115579 -33.960727 -40.889685 70.473221 -9.292518 3.181044 0.188288 0.000000 0.000000 0.000000 -3.710172 29.127066 -19.500885 81.270634 11.257023 20.489423 -60.273260 74.044918 -40.716869 12.218754 3.199871 -32.434755 0.000000 0.000000 0.000000 
0.575862 0.358927 0.265156 -37.834638 44.808403 0.593490 20.342039 13.822436 -65.019130 6.118493 24.820667 109.153869 11.394507 16.498962 -29.627410 -0.237845 11.891408 -19.261106 -2.437483 13.968778 -73.199591 3.806702 -11.451047 108.622236 5.797100 -4.019402 -15.928836 -28.552682 0.761657 -14.596536 -14.750922 -2.942887 35.867462 13.247738 -19.388833 -15.834955 4.234540 -13.137253 -3.852004 -9.711665 0.194721 -3.464536 14.221739 -10.714197 4.483116 20.052736 -57.132418 -19.556327 -68.766054 -64.116687 47.086822 -30.484920 -39.112239 64.699406 -11.447283 5.270389 -3.362049 0.000000 0.000000 0.000000 -4.503192 29.823611 -19.188259 84.378516 12.032248 22.427041 -55.441205 72.418385 -37.658989 14.242067 3.820459 -33.462952 0.000000 0.000000 0.000000 
0.610903 0.359877 0.276652 -41.558001 47.127203 -5.369402 19.569521 11.879518 -59.552809 5.058855 23.596278 107.380613 11.797546 16.314287 -28.048512 -0.890491 11.311218 -20.197742 -3.366711 15.923309 -80.077220 2.632077 -14.944094 111.743619 4.880291 -3.610556 -14.032817 -27.812382 1.025904 -14.716544 -15.155128 -3.760676 35.585343 13.001271 -18.886154 -15.409198 3.738954 -13.088423 -3.359103 -10.186856 -0.305285 -4.597807 14.429428 -10.480301 4.829354 18.593962 -56.976812 -17.935565 -73.734231 -62.151696 49.935756 -27.709979 -35.865617 58.449144 -13.617478 5.942234 -5.272977 0.000000 0.000000 0.000000 -5.146489 29.996612 -19.209069 85.959829 11.801025 22.806551 -52.161647 71.740885 -36.299340 16.550506 5.078968 -34.637243 0.000000 0.000000 0.000000 
0.644873 0.356538 0.287873 -44.455627 49.824932 -10.557384 18.850555 11.843281 -54.262528 5.268085 23.262841 105.753889 12.344272 15.993555 -26.179950 -2.606918 10.967097 -21.372898 -3.876667 16.990017 -86.250271 0.737155 -16.906505 112.866276 5.209862 -2.571761 -12.120458 -27.820132 1.703800 -15.354131 -15.599956 -4.625868 34.718128 12.509956 -17.828918 -15.324431 2.831795 -13.107206 -2.523258 -11.126450 -1.031335 -6.504727 14.523102 -10.969634 3.926567 18.629887 -56.934634 -17.198969 -76.702265 -59.884331 50.994060 -24.855877 -32.322472 53.262758 -15.843893 6.781177 -5.678194 0.000000 0.000000 0.000000 -5.975129 30.613231 -19.141070 88.597268 11.088364 22.586224 -47.634803 71.757401 -33.375647 18.209102 7.381341 -34.701220 0.000000 0.000000 0.000000 
0.679816 0.355861 0.298224 -47.638926 52.255433 -15.891313 18.300935 11.097499 -49.700726 4.665572 22.681629 105.057465 12.486952 15.656657 -24.487199 -3.699713 10.314890 -21.575199 -5.712380 17.570210 -91.262080 0.181848 -18.988814 112.172479 6.325496 -2.539251 -9.561441 -28.965269 2.856123 -15.407560 -15.735008 -5.670632 33.971003 11.931191 -17.454589 -15.046369 2.542902 -13.012441 -1.893841 -11.689118 -0.782075 -8.115144 15.272521 -10.229646 3.666748 19.063358 -57.079827 -17.215731 -80.140434 -57.600384 52.849825 -22.447021 -28.496337 49.426796 -17.076190 7.204969 -7.581940 0.000000 0.000000 0.000000 -6.881984 30.992060 -19.389952 90.423524 10.257934 23.489670 -47.587403 71.618902 -33.900197 18.949884 8.187292 -34.465661 0.000000 0.000000 0.000000 
0.715381 0.356199 0.307471 -51.177215 54.294915 -21.457794 17.830936 10.584145 -43.994850 3.199347 21.574508 103.063829 12.282197 14.795397 -23.247168 -4.330122 10.700310 -21.275561 -7.214505 17.609734 -95.758443 -0.686832 -19.451692 110.878857 8.022970 -3.546941 -8.119715 -30.193530 3.224108 -15.874065 -15.669693 -6.954155 32.961850 11.453246 -16.454582 -14.871685 2.361722 -13.079450 -0.965492 -12.028911 -1.230678 -9.395181 14.956148 -9.856954 2.262151 19.317472 -56.824917 -16.995959 -80.787179 -55.003863 51.963744 -20.652253 -25.990872 46.606483 -18.283717 6.925872 -9.475781 0.000000 0.000000 0.000000 -7.478548 31.256638 -18.837855 91.113998 10.318072 24.110995 -49.113463 71.138476 -36.084801 19.033492 9.259987 -34.848563 0.000000 0.000000 0.000000 
